<svg width="666.1px" height="161.6px" xmlns="http://www.w3.org/2000/svg" viewBox="-83.03437500000001 -5.799999999999997 666.06875 161.6" style="background: rgba(0, 0, 0, 0)" preserveAspectRatio="xMidYMid"><defs><filter id="editing-vintage" x="-100%" y="-100%" width="300%" height="300%"><feConvolveMatrix in="SourceGraphic" result="extrude" order="8,8" divisor="1" kernelMatrix="1,0,0,0,0,0,0,0,0,1,0,0,0,0,0,0,0,0,1,0,0,0,0,0,0,0,0,1,0,0,0,0,0,0,0,0,1,0,0,0,0,0,0,0,0,1,0,0,0,0,0,0,0,0,1,0,0,0,0,0,0,0,0,1"> </feConvolveMatrix><feFlood flood-color="#900" result="flood-extrude"></feFlood><feComposite operator="in" in="flood-extrude" in2="extrude" result="extrude-color"></feComposite><feOffset dx="4" dy="4" in="extrude-color" result="extrude-offset"></feOffset><feColorMatrix in="SourceGraphic" result="stroke" type="matrix" values="0 0 0 0 0 0 0 0 0 0 0 0 0 0 0 0 1 0 0 0 "></feColorMatrix><feColorMatrix in="SourceGraphic" result="fill" type="matrix" values="0 0 0 0 0 0 0 0 0 0 0 0 0 0 0 1 0 0 1 0 "></feColorMatrix><feConvolveMatrix in="stroke" result="inner-shadow" order="5,5" divisor="1" kernelMatrix="1 0 0 0 0 0 1 0 0 0 0 0 1 0 0 0 0 0 1 0 0 0 0 0 1 "></feConvolveMatrix><feOffset dx="1" dy="1" in="inner-shadow" result="offset"></feOffset><feComposite operator="in" in="offset" in2="SourceAlpha" result="comp"></feComposite><feFlood flood-color="#000" result="flood3"></feFlood><feComposite operator="in" in="flood3" in2="comp" result="comp2"></feComposite><feColorMatrix in="comp2" result="comp3" type="matrix" values="1 0 0 0 0 0 1 0 0 0 0 0 1 0 0 0 0 0 0.5 0 "></feColorMatrix><feFlood flood-color="#f00" result="flood1"></feFlood><feComposite operator="in" in="flood1" in2="fill" result="fill2"></feComposite><feFlood flood-color="#fff" result="flood2"></feFlood><feComposite operator="in" in="flood2" in2="stroke" result="stroke2"></feComposite><feMerge result="obj"><feMergeNode in="extrude-offset"></feMergeNode><feMergeNode in="fill2"></feMergeNode><feMergeNode in="comp3"></feMergeNode></feMerge><feConvolveMatrix in="SourceAlpha" result="shadow" order="8,8" divisor="1" kernelMatrix="1,0,0,0,0,0,0,0,0,1,0,0,0,0,0,0,0,0,1,0,0,0,0,0,0,0,0,1,0,0,0,0,0,0,0,0,1,0,0,0,0,0,0,0,0,1,0,0,0,0,0,0,0,0,1,0,0,0,0,0,0,0,0,1"></feConvolveMatrix><feOffset dx="12" dy="12" in="shadow" result="shadow-offset"></feOffset><feFlood flood-color="#444444" result="flood-shadow"></feFlood><feComposite operator="in" in="flood-shadow" in2="shadow-offset" result="shadow-color"></feComposite><feMerge><feMergeNode in="shadow-color"></feMergeNode><feMergeNode in="obj"></feMergeNode></feMerge></filter></defs><g transform="matrix(1,0,0,1,-8,-8)"><g transform="matrix(1.3,0,0,1.3,-75.9,-31.2)" filter="url(#editing-vintage)"><g transform="translate(10.4,104.9)"><path d="M 19.9 -7.1 L -3.6 -7.1 L -3.6 -11.7 L 5 -11.7 L 5 -47.6 L -3.6 -47.6 L -3.6 -52.2 L 19.9 -52.2 L 19.9 -47.6 L 11.3 -47.6 L 11.3 -11.7 L 19.9 -11.7 L 19.9 -7.1 Z M 52.2 -7.1 L 52.2 -31.5 L 52.2 -31.5 Q 52.2 -36.3 45 -36.3 L 45 -36.3 L 45 -36.3 Q 41.4 -36.3 39.5 -34.8 L 39.5 -34.8 L 39.5 -34.8 Q 37.5 -33.2 37.5 -30.6 L 37.5 -30.6 L 37.5 -7.1 L 31.6 -7.1 L 31.6 -40.2 L 37.5 -40.2 L 37.5 -37 L 37.5 -37 Q 40.8 -40.8 47.5 -40.8 L 47.5 -40.8 L 47.5 -40.8 Q 54.1 -40.8 56.7 -36.5 L 56.7 -36.5 L 57.5 -37.2 L 57.5 -37.2 Q 61.1 -40.8 67.6 -40.8 L 67.6 -40.8 L 67.6 -40.8 Q 75.9 -40.8 77.9 -34.9 L 77.9 -34.9 L 77.9 -34.9 Q 78.4 -33.2 78.4 -31.1 L 78.4 -31.1 L 78.4 -7.1 L 72.6 -7.1 L 72.6 -31.5 L 72.6 -31.5 Q 72.6 -36.3 66.1 -36.3 L 66.1 -36.3 L 66.1 -36.3 Q 62 -36.3 60 -34.8 L 60 -34.8 L 60 -34.8 Q 58.1 -33.2 58.1 -30.6 L 58.1 -30.6 L 58.1 -7.1 L 52.2 -7.1 Z M 98.7 -6.4 L 98.7 -6.4 L 98.7 -6.4 Q 93.6 -6.4 90.9 -9.1 L 90.9 -9.1 L 90.9 -9.1 Q 88.1 -11.8 88.1 -15.9 L 88.1 -15.9 L 88.1 -15.9 Q 88.1 -18.2 89 -19.7 L 89 -19.7 L 89 -19.7 Q 91 -22.9 100.8 -25.7 L 100.8 -25.7 L 100.8 -25.7 Q 106.4 -27.3 107.3 -28.4 L 107.3 -28.4 L 107.3 -28.4 Q 108.2 -29.5 108.3 -30.2 L 108.3 -30.2 L 108.3 -30.2 Q 108.4 -30.8 108.4 -32.2 L 108.4 -32.2 L 108.4 -32.2 Q 108.4 -33.6 107.2 -35 L 107.2 -35 L 107.2 -35 Q 106.1 -36.3 102.3 -36.3 L 102.3 -36.3 L 102.3 -36.3 Q 96.9 -36.3 95.7 -34.2 L 95.7 -34.2 L 95.7 -34.2 Q 95 -33.2 95 -31.4 L 95 -31.4 L 95 -29.9 L 89.4 -29.9 L 89.4 -31.4 L 89.4 -31.4 Q 89.4 -36.2 92.6 -38.5 L 92.6 -38.5 L 92.6 -38.5 Q 95.9 -40.8 102.3 -40.8 L 102.3 -40.8 L 102.3 -40.8 Q 108.7 -40.8 111.5 -37.9 L 111.5 -37.9 L 111.5 -37.9 Q 114.2 -35 114.2 -29.6 L 114.2 -29.6 L 114.2 -15.4 L 114.2 -15.4 Q 114.2 -12.8 114.9 -12.1 L 114.9 -12.1 L 114.9 -12.1 Q 115.5 -11.3 117.7 -11.3 L 117.7 -11.3 L 117 -6.8 L 115.8 -6.8 L 115.8 -6.8 Q 112.7 -6.8 111.2 -8 L 111.2 -8 L 111.2 -8 Q 109.6 -9.2 108.8 -11.7 L 108.8 -11.7 L 108.8 -11.7 Q 106.2 -7.9 102.6 -6.9 L 102.6 -6.9 L 102.6 -6.9 Q 100.8 -6.4 98.7 -6.4 Z M 101.6 -21.7 L 101.6 -21.7 L 101.6 -21.7 Q 97.2 -20.4 95.5 -19.1 L 95.5 -19.1 L 95.5 -19.1 Q 93.8 -17.8 93.8 -15.5 L 93.8 -15.5 L 93.8 -15.5 Q 93.8 -13.2 95.3 -12 L 95.3 -12 L 95.3 -12 Q 96.9 -10.8 99.1 -10.8 L 99.1 -10.8 L 99.1 -10.8 Q 101.4 -10.8 103.2 -11.4 L 103.2 -11.4 L 103.2 -11.4 Q 105 -12 106.5 -13.1 L 106.5 -13.1 L 106.5 -13.1 Q 107.9 -14.2 108.4 -15.7 L 108.4 -15.7 L 108.4 -25.3 L 108.4 -25.3 Q 106.1 -23 101.6 -21.7 Z M 128.5 4.4 L 129.8 0 L 129.8 0 Q 133 1.2 137.8 1.2 L 137.8 1.2 L 137.8 1.2 Q 142.5 1.2 144.4 -0.6 L 144.4 -0.6 L 144.4 -0.6 Q 146.3 -2.3 146.3 -6.1 L 146.3 -6.1 L 146.3 -10.7 L 146.3 -10.7 Q 145 -9.5 142.4 -8.9 L 142.4 -8.9 L 142.4 -8.9 Q 139.9 -8.3 137.8 -8.3 L 137.8 -8.3 L 137.8 -8.3 Q 125.2 -8.3 125.2 -18.9 L 125.2 -18.9 L 125.2 -29.8 L 125.2 -29.8 Q 125.2 -35 128.3 -37.9 L 128.3 -37.9 L 128.3 -37.9 Q 131.5 -40.8 137.8 -40.8 L 137.8 -40.8 L 137.8 -40.8 Q 140.3 -40.8 142.9 -39.8 L 142.9 -39.8 L 142.9 -39.8 Q 145.5 -38.7 146.3 -37.5 L 146.3 -37.5 L 146.3 -40.2 L 152.1 -40.2 L 152.1 -7.8 L 152.1 -7.8 Q 152.1 -1.9 149 1.9 L 149 1.9 L 149 1.9 Q 145.9 5.7 138.9 5.7 L 138.9 5.7 L 138.9 5.7 Q 131.9 5.7 128.5 4.4 L 128.5 4.4 Z M 146.3 -15.3 L 146.3 -31.7 L 146.3 -31.7 Q 146.3 -36.3 138.7 -36.3 L 138.7 -36.3 L 138.7 -36.3 Q 131.1 -36.3 131.1 -30.4 L 131.1 -30.4 L 131.1 -18 L 131.1 -18 Q 131.1 -12.8 138.7 -12.8 L 138.7 -12.8 L 138.7 -12.8 Q 143.1 -12.8 146.3 -15.3 L 146.3 -15.3 Z M 176 -6.4 L 176 -6.4 L 176 -6.4 Q 168.8 -6.4 165.5 -9.4 L 165.5 -9.4 L 165.5 -9.4 Q 162.3 -12.4 162.3 -18.7 L 162.3 -18.7 L 162.3 -30.3 L 162.3 -30.3 Q 162.3 -35.2 165.6 -38 L 165.6 -38 L 165.6 -38 Q 168.9 -40.8 175.7 -40.8 L 175.7 -40.8 L 175.7 -40.8 Q 182.5 -40.8 185.8 -38.2 L 185.8 -38.2 L 185.8 -38.2 Q 189.1 -35.6 189.1 -30.7 L 189.1 -30.7 L 189.1 -22.9 L 168.1 -22.9 L 168.1 -18.2 L 168.1 -18.2 Q 168.1 -14.1 169.8 -12.5 L 169.8 -12.5 L 169.8 -12.5 Q 171.4 -10.9 175.8 -10.9 L 175.8 -10.9 L 175.8 -10.9 Q 180.1 -10.9 180.6 -11.1 L 180.6 -11.1 L 180.6 -11.1 Q 181.2 -11.2 181.8 -11.5 L 181.8 -11.5 L 181.8 -11.5 Q 182.4 -11.7 182.6 -12.1 L 182.6 -12.1 L 182.6 -12.1 Q 182.9 -12.4 183.2 -13.1 L 183.2 -13.1 L 183.2 -13.1 Q 183.6 -13.8 183.8 -15.9 L 183.8 -15.9 L 189 -15.9 L 189 -15.9 Q 188.7 -12.9 188 -11.1 L 188 -11.1 L 188 -11.1 Q 187.2 -9.3 185.6 -8.2 L 185.6 -8.2 L 185.6 -8.2 Q 184.1 -7.1 181.9 -6.7 L 181.9 -6.7 L 181.9 -6.7 Q 179.7 -6.4 176 -6.4 Z M 168.1 -30.8 L 168.1 -26.8 L 183.4 -26.8 L 183.4 -31.4 L 183.4 -31.4 Q 183.4 -34.2 181.5 -35.2 L 181.5 -35.2 L 181.5 -35.2 Q 179.5 -36.3 175.8 -36.3 L 175.8 -36.3 L 175.8 -36.3 Q 172.1 -36.3 170.1 -35 L 170.1 -35 L 170.1 -35 Q 168.1 -33.7 168.1 -30.8 L 168.1 -30.8 Z M 209.5 -10.9 L 209.5 -10.9 L 209.5 -10.9 Q 216.2 -10.9 216.2 -15.8 L 216.2 -15.8 L 216.2 -15.8 Q 216.2 -18 215.6 -19 L 215.6 -19 L 215.6 -19 Q 215 -20.1 212.8 -20.9 L 212.8 -20.9 L 204.9 -23.8 L 204.9 -23.8 Q 201.3 -25.1 199.9 -26.9 L 199.9 -26.9 L 199.9 -26.9 Q 198.5 -28.6 198.5 -31.3 L 198.5 -31.3 L 198.5 -31.3 Q 198.5 -33.9 199 -35.5 L 199 -35.5 L 199 -35.5 Q 199.5 -37.1 200.8 -38.4 L 200.8 -38.4 L 200.8 -38.4 Q 203.2 -40.8 209.5 -40.8 L 209.5 -40.8 L 209.5 -40.8 Q 215.8 -40.8 220.4 -39 L 220.4 -39 L 219 -34.5 L 219 -34.5 Q 217.4 -35.1 214.9 -35.7 L 214.9 -35.7 L 214.9 -35.7 Q 212.3 -36.3 210.3 -36.3 L 210.3 -36.3 L 210.3 -36.3 Q 205.9 -36.3 204.7 -34.9 L 204.7 -34.9 L 204.7 -34.9 Q 203.9 -34 203.9 -32.2 L 203.9 -32.2 L 203.9 -32.2 Q 203.9 -30.5 204.5 -29.7 L 204.5 -29.7 L 204.5 -29.7 Q 205.1 -29 206.8 -28.4 L 206.8 -28.4 L 214.6 -25.3 L 214.6 -25.3 Q 218.6 -23.7 219.9 -21.8 L 219.9 -21.8 L 219.9 -21.8 Q 221.2 -19.9 221.2 -15.8 L 221.2 -15.8 L 221.2 -15.8 Q 221.2 -11.6 218.5 -9 L 218.5 -9 L 218.5 -9 Q 215.9 -6.4 210.3 -6.4 L 210.3 -6.4 L 210.3 -6.4 Q 206.3 -6.4 203.1 -7.2 L 203.1 -7.2 L 203.1 -7.2 Q 199.9 -8.1 198.3 -9.1 L 198.3 -9.1 L 199.7 -13.4 L 199.7 -13.4 Q 204.2 -10.9 209.5 -10.9 Z M 265.4 -6.4 L 265.4 -6.4 L 265.4 -6.4 Q 252.8 -6.4 248.9 -12.6 L 248.9 -12.6 L 248.9 -12.6 Q 246.6 -16.3 246.6 -22.2 L 246.6 -22.2 L 246.6 -36.4 L 246.6 -36.4 Q 246.6 -46.1 252.3 -49.9 L 252.3 -49.9 L 252.3 -49.9 Q 256.7 -52.9 264.8 -52.9 L 264.8 -52.9 L 264.8 -52.9 Q 272.9 -52.9 276.7 -51.1 L 276.7 -51.1 L 276.7 -51.1 Q 280.4 -49.3 281.6 -46.2 L 281.6 -46.2 L 281.6 -46.2 Q 282.8 -43.2 282.8 -38.8 L 282.8 -38.8 L 277.1 -38.3 L 277.1 -38.3 Q 277.1 -42.7 276.2 -44.2 L 276.2 -44.2 L 276.2 -44.2 Q 275.4 -45.7 274.6 -46.3 L 274.6 -46.3 L 274.6 -46.3 Q 273.8 -47 271.9 -47.4 L 271.9 -47.4 L 271.9 -47.4 Q 270 -47.9 266.1 -47.9 L 266.1 -47.9 L 266.1 -47.9 Q 262.3 -47.9 260.1 -47.4 L 260.1 -47.4 L 260.1 -47.4 Q 257.9 -46.9 256.3 -45.7 L 256.3 -45.7 L 256.3 -45.7 Q 252.9 -43.5 252.9 -37.6 L 252.9 -37.6 L 252.9 -21.3 L 252.9 -21.3 Q 252.9 -15.4 256.1 -13.4 L 256.1 -13.4 L 256.1 -13.4 Q 259.3 -11.4 265.4 -11.4 L 265.4 -11.4 L 265.4 -11.4 Q 271.5 -11.4 274.3 -13.4 L 274.3 -13.4 L 274.3 -13.4 Q 277 -15.3 277 -21.3 L 277 -21.3 L 277 -25.4 L 266.3 -25.4 L 266.3 -30 L 283.3 -30 L 283.3 -7.1 L 279.9 -7.1 L 279.1 -14.7 L 279.1 -14.7 Q 278.5 -10.8 275.2 -8.6 L 275.2 -8.6 L 275.2 -8.6 Q 271.9 -6.4 265.4 -6.4 Z M 304.2 -6.4 L 304.2 -6.4 L 304.2 -6.4 Q 299.1 -6.4 296.4 -9.1 L 296.4 -9.1 L 296.4 -9.1 Q 293.6 -11.8 293.6 -15.9 L 293.6 -15.9 L 293.6 -15.9 Q 293.6 -18.2 294.5 -19.7 L 294.5 -19.7 L 294.5 -19.7 Q 296.5 -22.9 306.3 -25.7 L 306.3 -25.7 L 306.3 -25.7 Q 311.9 -27.3 312.8 -28.4 L 312.8 -28.4 L 312.8 -28.4 Q 313.7 -29.5 313.8 -30.2 L 313.8 -30.2 L 313.8 -30.2 Q 313.9 -30.8 313.9 -32.2 L 313.9 -32.2 L 313.9 -32.2 Q 313.9 -33.6 312.7 -35 L 312.7 -35 L 312.7 -35 Q 311.6 -36.3 307.8 -36.3 L 307.8 -36.3 L 307.8 -36.3 Q 302.4 -36.3 301.2 -34.2 L 301.2 -34.2 L 301.2 -34.2 Q 300.5 -33.2 300.5 -31.4 L 300.5 -31.4 L 300.5 -29.9 L 294.9 -29.9 L 294.9 -31.4 L 294.9 -31.4 Q 294.9 -36.2 298.1 -38.5 L 298.1 -38.5 L 298.1 -38.5 Q 301.4 -40.8 307.8 -40.8 L 307.8 -40.8 L 307.8 -40.8 Q 314.2 -40.8 317 -37.9 L 317 -37.9 L 317 -37.9 Q 319.7 -35 319.7 -29.6 L 319.7 -29.6 L 319.7 -15.4 L 319.7 -15.4 Q 319.7 -12.8 320.4 -12.1 L 320.4 -12.1 L 320.4 -12.1 Q 321 -11.3 323.2 -11.3 L 323.2 -11.3 L 322.5 -6.8 L 321.3 -6.8 L 321.3 -6.8 Q 318.2 -6.8 316.7 -8 L 316.7 -8 L 316.7 -8 Q 315.1 -9.2 314.3 -11.7 L 314.3 -11.7 L 314.3 -11.7 Q 311.7 -7.9 308.1 -6.9 L 308.1 -6.9 L 308.1 -6.9 Q 306.3 -6.4 304.2 -6.4 Z M 307.1 -21.7 L 307.1 -21.7 L 307.1 -21.7 Q 302.7 -20.4 301 -19.1 L 301 -19.1 L 301 -19.1 Q 299.3 -17.8 299.3 -15.5 L 299.3 -15.5 L 299.3 -15.5 Q 299.3 -13.2 300.8 -12 L 300.8 -12 L 300.8 -12 Q 302.4 -10.8 304.6 -10.8 L 304.6 -10.8 L 304.6 -10.8 Q 306.9 -10.8 308.7 -11.4 L 308.7 -11.4 L 308.7 -11.4 Q 310.5 -12 312 -13.1 L 312 -13.1 L 312 -13.1 Q 313.4 -14.2 313.9 -15.7 L 313.9 -15.7 L 313.9 -25.3 L 313.9 -25.3 Q 311.6 -23 307.1 -21.7 Z M 344.3 -6.8 L 342.6 -6.8 L 342.6 -6.8 Q 339.7 -6.8 337.9 -7.2 L 337.9 -7.2 L 337.9 -7.2 Q 336 -7.7 334.6 -8.9 L 334.6 -8.9 L 334.6 -8.9 Q 332 -11.2 332 -18.2 L 332 -18.2 L 332 -54.1 L 337.9 -54.1 L 337.9 -18.2 L 337.9 -18.2 Q 337.9 -14.2 339.1 -13 L 339.1 -13 L 339.1 -13 Q 340.3 -11.7 344 -11.7 L 344 -11.7 L 345 -11.7 L 344.3 -6.8 Z M 366.1 -6.8 L 364.4 -6.8 L 364.4 -6.8 Q 361.5 -6.8 359.6 -7.2 L 359.6 -7.2 L 359.6 -7.2 Q 357.8 -7.7 356.4 -8.9 L 356.4 -8.9 L 356.4 -8.9 Q 353.8 -11.2 353.8 -18.2 L 353.8 -18.2 L 353.8 -54.1 L 359.6 -54.1 L 359.6 -18.2 L 359.6 -18.2 Q 359.6 -14.2 360.8 -13 L 360.8 -13 L 360.8 -13 Q 362 -11.7 365.7 -11.7 L 365.7 -11.7 L 366.8 -11.7 L 366.1 -6.8 Z M 388 -6.4 L 388 -6.4 L 388 -6.4 Q 380.7 -6.4 377.4 -9.4 L 377.4 -9.4 L 377.4 -9.4 Q 374.2 -12.4 374.2 -18.7 L 374.2 -18.7 L 374.2 -30.3 L 374.2 -30.3 Q 374.2 -35.2 377.5 -38 L 377.5 -38 L 377.5 -38 Q 380.9 -40.8 387.6 -40.8 L 387.6 -40.8 L 387.6 -40.8 Q 394.4 -40.8 397.7 -38.2 L 397.7 -38.2 L 397.7 -38.2 Q 401 -35.6 401 -30.7 L 401 -30.7 L 401 -22.9 L 380.1 -22.9 L 380.1 -18.2 L 380.1 -18.2 Q 380.1 -14.1 381.7 -12.5 L 381.7 -12.5 L 381.7 -12.5 Q 383.4 -10.9 387.7 -10.9 L 387.7 -10.9 L 387.7 -10.9 Q 392 -10.9 392.6 -11.1 L 392.6 -11.1 L 392.6 -11.1 Q 393.1 -11.2 393.7 -11.5 L 393.7 -11.5 L 393.7 -11.5 Q 394.3 -11.7 394.6 -12.1 L 394.6 -12.1 L 394.6 -12.1 Q 394.8 -12.4 395.2 -13.1 L 395.2 -13.1 L 395.2 -13.1 Q 395.6 -13.8 395.8 -15.9 L 395.8 -15.9 L 400.9 -15.9 L 400.9 -15.9 Q 400.6 -12.9 399.9 -11.1 L 399.9 -11.1 L 399.9 -11.1 Q 399.2 -9.3 397.6 -8.2 L 397.6 -8.2 L 397.6 -8.2 Q 396 -7.1 393.8 -6.7 L 393.8 -6.7 L 393.8 -6.7 Q 391.6 -6.4 388 -6.4 Z M 380.1 -30.8 L 380.1 -26.8 L 395.3 -26.8 L 395.3 -31.4 L 395.3 -31.4 Q 395.3 -34.2 393.4 -35.2 L 393.4 -35.2 L 393.4 -35.2 Q 391.5 -36.3 387.8 -36.3 L 387.8 -36.3 L 387.8 -36.3 Q 384 -36.3 382.1 -35 L 382.1 -35 L 382.1 -35 Q 380.1 -33.7 380.1 -30.8 L 380.1 -30.8 Z M 417.4 -7.1 L 411.6 -7.1 L 411.6 -40.2 L 417.4 -40.2 L 417.4 -35.5 L 417.4 -35.5 Q 418.6 -38.6 423.5 -39.9 L 423.5 -39.9 L 423.5 -39.9 Q 426.1 -40.7 428.9 -40.6 L 428.9 -40.6 L 428.8 -35.6 L 428.8 -35.6 Q 424.5 -35.6 421 -33.9 L 421 -33.9 L 421 -33.9 Q 417.4 -32.2 417.4 -30.2 L 417.4 -30.2 L 417.4 -7.1 Z M 436.8 5.6 L 436.8 5.6 L 436.8 1 L 436.8 1 Q 440.6 1 443 -0.9 L 443 -0.9 L 443 -0.9 Q 445.4 -2.8 446.6 -7.2 L 446.6 -7.2 L 432.9 -40.2 L 439.2 -40.2 L 449.3 -13.8 L 457.8 -40.2 L 463.7 -40.2 L 452.8 -8.5 L 452.8 -8.5 Q 450.7 -2.2 448.9 0.2 L 448.9 0.2 L 448.9 0.2 Q 447.2 2.7 445.6 3.6 L 445.6 3.6 L 445.6 3.6 Q 442.3 5.6 436.8 5.6 Z" fill="#ff0000" stroke="#00ff00" stroke-width="1.8"></path></g></g><g transform="matrix(1.3,0,0,1.3,-75.9,-31.2)"><g transform="translate(10.4,104.9)"><path d="M 19.9 -7.1 L -3.6 -7.1 L -3.6 -11.7 L 5 -11.7 L 5 -47.6 L -3.6 -47.6 L -3.6 -52.2 L 19.9 -52.2 L 19.9 -47.6 L 11.3 -47.6 L 11.3 -11.7 L 19.9 -11.7 L 19.9 -7.1 Z M 52.2 -7.1 L 52.2 -31.5 L 52.2 -31.5 Q 52.2 -36.3 45 -36.3 L 45 -36.3 L 45 -36.3 Q 41.4 -36.3 39.5 -34.8 L 39.5 -34.8 L 39.5 -34.8 Q 37.5 -33.2 37.5 -30.6 L 37.5 -30.6 L 37.5 -7.1 L 31.6 -7.1 L 31.6 -40.2 L 37.5 -40.2 L 37.5 -37 L 37.5 -37 Q 40.8 -40.8 47.5 -40.8 L 47.5 -40.8 L 47.5 -40.8 Q 54.1 -40.8 56.7 -36.5 L 56.7 -36.5 L 57.5 -37.2 L 57.5 -37.2 Q 61.1 -40.8 67.6 -40.8 L 67.6 -40.8 L 67.6 -40.8 Q 75.9 -40.8 77.9 -34.9 L 77.9 -34.9 L 77.9 -34.9 Q 78.4 -33.2 78.4 -31.1 L 78.4 -31.1 L 78.4 -7.1 L 72.6 -7.1 L 72.6 -31.5 L 72.6 -31.5 Q 72.6 -36.3 66.1 -36.3 L 66.1 -36.3 L 66.1 -36.3 Q 62 -36.3 60 -34.8 L 60 -34.8 L 60 -34.8 Q 58.1 -33.2 58.1 -30.6 L 58.1 -30.6 L 58.1 -7.1 L 52.2 -7.1 Z M 98.7 -6.4 L 98.7 -6.4 L 98.7 -6.4 Q 93.6 -6.4 90.9 -9.1 L 90.9 -9.1 L 90.9 -9.1 Q 88.1 -11.8 88.1 -15.9 L 88.1 -15.9 L 88.1 -15.9 Q 88.1 -18.2 89 -19.7 L 89 -19.7 L 89 -19.7 Q 91 -22.9 100.8 -25.7 L 100.8 -25.7 L 100.8 -25.7 Q 106.4 -27.3 107.3 -28.4 L 107.3 -28.4 L 107.3 -28.4 Q 108.2 -29.5 108.3 -30.2 L 108.3 -30.2 L 108.3 -30.2 Q 108.4 -30.8 108.4 -32.2 L 108.4 -32.2 L 108.4 -32.2 Q 108.4 -33.6 107.2 -35 L 107.2 -35 L 107.2 -35 Q 106.1 -36.3 102.3 -36.3 L 102.3 -36.3 L 102.3 -36.3 Q 96.9 -36.3 95.7 -34.2 L 95.7 -34.2 L 95.7 -34.2 Q 95 -33.2 95 -31.4 L 95 -31.4 L 95 -29.9 L 89.4 -29.9 L 89.4 -31.4 L 89.4 -31.4 Q 89.4 -36.2 92.6 -38.5 L 92.6 -38.5 L 92.6 -38.5 Q 95.9 -40.8 102.3 -40.8 L 102.3 -40.8 L 102.3 -40.8 Q 108.7 -40.8 111.5 -37.9 L 111.5 -37.9 L 111.5 -37.9 Q 114.2 -35 114.2 -29.6 L 114.2 -29.6 L 114.2 -15.4 L 114.2 -15.4 Q 114.2 -12.8 114.9 -12.1 L 114.9 -12.1 L 114.9 -12.1 Q 115.5 -11.3 117.7 -11.3 L 117.7 -11.3 L 117 -6.8 L 115.8 -6.8 L 115.8 -6.8 Q 112.7 -6.8 111.2 -8 L 111.2 -8 L 111.2 -8 Q 109.6 -9.2 108.8 -11.7 L 108.8 -11.7 L 108.8 -11.7 Q 106.2 -7.9 102.6 -6.9 L 102.6 -6.9 L 102.6 -6.9 Q 100.8 -6.4 98.7 -6.4 Z M 101.6 -21.7 L 101.6 -21.7 L 101.6 -21.7 Q 97.2 -20.4 95.5 -19.1 L 95.5 -19.1 L 95.5 -19.1 Q 93.8 -17.8 93.8 -15.5 L 93.8 -15.5 L 93.8 -15.5 Q 93.8 -13.2 95.3 -12 L 95.3 -12 L 95.3 -12 Q 96.9 -10.8 99.1 -10.8 L 99.1 -10.8 L 99.1 -10.8 Q 101.4 -10.8 103.2 -11.4 L 103.2 -11.4 L 103.2 -11.4 Q 105 -12 106.5 -13.1 L 106.5 -13.1 L 106.5 -13.1 Q 107.9 -14.2 108.4 -15.7 L 108.4 -15.7 L 108.4 -25.3 L 108.4 -25.3 Q 106.1 -23 101.6 -21.7 Z M 128.5 4.4 L 129.8 0 L 129.8 0 Q 133 1.2 137.8 1.2 L 137.8 1.2 L 137.8 1.2 Q 142.5 1.2 144.4 -0.6 L 144.4 -0.6 L 144.4 -0.6 Q 146.3 -2.3 146.3 -6.1 L 146.3 -6.1 L 146.3 -10.7 L 146.3 -10.7 Q 145 -9.5 142.4 -8.9 L 142.4 -8.9 L 142.4 -8.9 Q 139.9 -8.3 137.8 -8.3 L 137.8 -8.3 L 137.8 -8.3 Q 125.2 -8.3 125.2 -18.9 L 125.2 -18.9 L 125.2 -29.8 L 125.2 -29.8 Q 125.2 -35 128.3 -37.9 L 128.3 -37.9 L 128.3 -37.9 Q 131.5 -40.8 137.8 -40.8 L 137.8 -40.8 L 137.8 -40.8 Q 140.3 -40.8 142.9 -39.8 L 142.9 -39.8 L 142.9 -39.8 Q 145.5 -38.7 146.3 -37.5 L 146.3 -37.5 L 146.3 -40.2 L 152.1 -40.2 L 152.1 -7.8 L 152.1 -7.8 Q 152.1 -1.9 149 1.9 L 149 1.9 L 149 1.9 Q 145.9 5.7 138.9 5.7 L 138.9 5.7 L 138.9 5.7 Q 131.9 5.7 128.5 4.4 L 128.5 4.4 Z M 146.3 -15.3 L 146.3 -31.7 L 146.3 -31.7 Q 146.3 -36.3 138.7 -36.3 L 138.7 -36.3 L 138.7 -36.3 Q 131.1 -36.3 131.1 -30.4 L 131.1 -30.4 L 131.1 -18 L 131.1 -18 Q 131.1 -12.8 138.7 -12.8 L 138.7 -12.8 L 138.7 -12.8 Q 143.1 -12.8 146.3 -15.3 L 146.3 -15.3 Z M 176 -6.4 L 176 -6.4 L 176 -6.4 Q 168.8 -6.4 165.5 -9.4 L 165.5 -9.4 L 165.5 -9.4 Q 162.3 -12.4 162.3 -18.7 L 162.3 -18.7 L 162.3 -30.3 L 162.3 -30.3 Q 162.3 -35.2 165.6 -38 L 165.6 -38 L 165.6 -38 Q 168.9 -40.8 175.7 -40.8 L 175.7 -40.8 L 175.7 -40.8 Q 182.5 -40.8 185.8 -38.2 L 185.8 -38.2 L 185.8 -38.2 Q 189.1 -35.6 189.1 -30.7 L 189.1 -30.7 L 189.1 -22.9 L 168.1 -22.9 L 168.1 -18.2 L 168.1 -18.2 Q 168.1 -14.1 169.8 -12.5 L 169.8 -12.5 L 169.8 -12.5 Q 171.4 -10.9 175.8 -10.9 L 175.8 -10.9 L 175.8 -10.9 Q 180.1 -10.9 180.6 -11.1 L 180.6 -11.1 L 180.6 -11.1 Q 181.2 -11.2 181.8 -11.5 L 181.8 -11.5 L 181.8 -11.5 Q 182.4 -11.7 182.6 -12.1 L 182.6 -12.1 L 182.6 -12.1 Q 182.9 -12.4 183.2 -13.1 L 183.2 -13.1 L 183.2 -13.1 Q 183.6 -13.8 183.8 -15.9 L 183.8 -15.9 L 189 -15.9 L 189 -15.9 Q 188.7 -12.9 188 -11.1 L 188 -11.1 L 188 -11.1 Q 187.2 -9.3 185.6 -8.2 L 185.6 -8.2 L 185.6 -8.2 Q 184.1 -7.1 181.9 -6.7 L 181.9 -6.7 L 181.9 -6.7 Q 179.7 -6.4 176 -6.4 Z M 168.1 -30.8 L 168.1 -26.8 L 183.4 -26.8 L 183.4 -31.4 L 183.4 -31.4 Q 183.4 -34.2 181.5 -35.2 L 181.5 -35.2 L 181.5 -35.2 Q 179.5 -36.3 175.8 -36.3 L 175.8 -36.3 L 175.8 -36.3 Q 172.1 -36.3 170.1 -35 L 170.1 -35 L 170.1 -35 Q 168.1 -33.7 168.1 -30.8 L 168.1 -30.8 Z M 209.5 -10.9 L 209.5 -10.9 L 209.5 -10.9 Q 216.2 -10.9 216.2 -15.8 L 216.2 -15.8 L 216.2 -15.8 Q 216.2 -18 215.6 -19 L 215.6 -19 L 215.6 -19 Q 215 -20.1 212.8 -20.9 L 212.8 -20.9 L 204.9 -23.8 L 204.9 -23.8 Q 201.3 -25.1 199.9 -26.9 L 199.9 -26.9 L 199.9 -26.9 Q 198.5 -28.6 198.5 -31.3 L 198.5 -31.3 L 198.5 -31.3 Q 198.5 -33.9 199 -35.5 L 199 -35.5 L 199 -35.5 Q 199.5 -37.1 200.8 -38.4 L 200.8 -38.4 L 200.8 -38.4 Q 203.2 -40.8 209.5 -40.8 L 209.5 -40.8 L 209.5 -40.8 Q 215.8 -40.8 220.4 -39 L 220.4 -39 L 219 -34.5 L 219 -34.5 Q 217.4 -35.1 214.9 -35.7 L 214.9 -35.7 L 214.9 -35.7 Q 212.3 -36.3 210.3 -36.3 L 210.3 -36.3 L 210.3 -36.3 Q 205.9 -36.3 204.7 -34.9 L 204.7 -34.9 L 204.7 -34.9 Q 203.9 -34 203.9 -32.2 L 203.9 -32.2 L 203.9 -32.2 Q 203.9 -30.5 204.5 -29.7 L 204.5 -29.7 L 204.5 -29.7 Q 205.1 -29 206.8 -28.4 L 206.8 -28.4 L 214.6 -25.3 L 214.6 -25.3 Q 218.6 -23.7 219.9 -21.8 L 219.9 -21.8 L 219.9 -21.8 Q 221.2 -19.9 221.2 -15.8 L 221.2 -15.8 L 221.2 -15.8 Q 221.2 -11.6 218.5 -9 L 218.5 -9 L 218.5 -9 Q 215.9 -6.4 210.3 -6.4 L 210.3 -6.4 L 210.3 -6.4 Q 206.3 -6.4 203.1 -7.2 L 203.1 -7.2 L 203.1 -7.2 Q 199.9 -8.1 198.3 -9.1 L 198.3 -9.1 L 199.7 -13.4 L 199.7 -13.4 Q 204.2 -10.9 209.5 -10.9 Z M 265.4 -6.4 L 265.4 -6.4 L 265.4 -6.4 Q 252.8 -6.4 248.9 -12.6 L 248.9 -12.6 L 248.9 -12.6 Q 246.6 -16.3 246.6 -22.2 L 246.6 -22.2 L 246.6 -36.4 L 246.6 -36.4 Q 246.6 -46.1 252.3 -49.9 L 252.3 -49.9 L 252.3 -49.9 Q 256.7 -52.9 264.8 -52.9 L 264.8 -52.9 L 264.8 -52.9 Q 272.9 -52.9 276.7 -51.1 L 276.7 -51.1 L 276.7 -51.1 Q 280.4 -49.3 281.6 -46.2 L 281.6 -46.2 L 281.6 -46.2 Q 282.8 -43.2 282.8 -38.8 L 282.8 -38.8 L 277.1 -38.3 L 277.1 -38.3 Q 277.1 -42.7 276.2 -44.2 L 276.2 -44.2 L 276.2 -44.2 Q 275.4 -45.7 274.6 -46.3 L 274.6 -46.3 L 274.6 -46.3 Q 273.8 -47 271.9 -47.4 L 271.9 -47.4 L 271.9 -47.4 Q 270 -47.9 266.1 -47.9 L 266.1 -47.9 L 266.1 -47.9 Q 262.3 -47.9 260.1 -47.4 L 260.1 -47.4 L 260.1 -47.4 Q 257.9 -46.9 256.3 -45.7 L 256.3 -45.7 L 256.3 -45.7 Q 252.9 -43.5 252.9 -37.6 L 252.9 -37.6 L 252.9 -21.3 L 252.9 -21.3 Q 252.9 -15.4 256.1 -13.4 L 256.1 -13.4 L 256.1 -13.4 Q 259.3 -11.4 265.4 -11.4 L 265.4 -11.4 L 265.4 -11.4 Q 271.5 -11.4 274.3 -13.4 L 274.3 -13.4 L 274.3 -13.4 Q 277 -15.3 277 -21.3 L 277 -21.3 L 277 -25.4 L 266.3 -25.4 L 266.3 -30 L 283.3 -30 L 283.3 -7.1 L 279.9 -7.1 L 279.1 -14.7 L 279.1 -14.7 Q 278.5 -10.8 275.2 -8.6 L 275.2 -8.6 L 275.2 -8.6 Q 271.9 -6.4 265.4 -6.4 Z M 304.2 -6.4 L 304.2 -6.4 L 304.2 -6.4 Q 299.1 -6.4 296.4 -9.1 L 296.4 -9.1 L 296.4 -9.1 Q 293.6 -11.8 293.6 -15.9 L 293.6 -15.9 L 293.6 -15.9 Q 293.6 -18.2 294.5 -19.7 L 294.5 -19.7 L 294.5 -19.7 Q 296.5 -22.9 306.3 -25.7 L 306.3 -25.7 L 306.3 -25.7 Q 311.9 -27.3 312.8 -28.4 L 312.8 -28.4 L 312.8 -28.4 Q 313.7 -29.5 313.8 -30.2 L 313.8 -30.2 L 313.8 -30.2 Q 313.9 -30.8 313.9 -32.2 L 313.9 -32.2 L 313.9 -32.2 Q 313.9 -33.6 312.7 -35 L 312.7 -35 L 312.7 -35 Q 311.6 -36.3 307.8 -36.3 L 307.8 -36.3 L 307.8 -36.3 Q 302.4 -36.3 301.2 -34.2 L 301.2 -34.2 L 301.2 -34.2 Q 300.5 -33.2 300.5 -31.4 L 300.5 -31.4 L 300.5 -29.9 L 294.9 -29.9 L 294.9 -31.4 L 294.9 -31.4 Q 294.9 -36.2 298.1 -38.5 L 298.1 -38.5 L 298.1 -38.5 Q 301.4 -40.8 307.8 -40.8 L 307.8 -40.8 L 307.8 -40.8 Q 314.2 -40.8 317 -37.9 L 317 -37.9 L 317 -37.9 Q 319.7 -35 319.7 -29.6 L 319.7 -29.6 L 319.7 -15.4 L 319.7 -15.4 Q 319.7 -12.8 320.4 -12.1 L 320.4 -12.1 L 320.4 -12.1 Q 321 -11.3 323.2 -11.3 L 323.2 -11.3 L 322.5 -6.8 L 321.3 -6.8 L 321.3 -6.8 Q 318.2 -6.8 316.7 -8 L 316.7 -8 L 316.7 -8 Q 315.1 -9.2 314.3 -11.7 L 314.3 -11.7 L 314.3 -11.7 Q 311.7 -7.9 308.1 -6.9 L 308.1 -6.9 L 308.1 -6.9 Q 306.3 -6.4 304.2 -6.4 Z M 307.1 -21.7 L 307.1 -21.7 L 307.1 -21.7 Q 302.7 -20.4 301 -19.1 L 301 -19.1 L 301 -19.1 Q 299.3 -17.8 299.3 -15.5 L 299.3 -15.5 L 299.3 -15.5 Q 299.3 -13.2 300.8 -12 L 300.8 -12 L 300.8 -12 Q 302.4 -10.8 304.6 -10.8 L 304.6 -10.8 L 304.6 -10.8 Q 306.9 -10.8 308.7 -11.4 L 308.7 -11.4 L 308.7 -11.4 Q 310.5 -12 312 -13.1 L 312 -13.1 L 312 -13.1 Q 313.4 -14.2 313.9 -15.7 L 313.9 -15.7 L 313.9 -25.3 L 313.9 -25.3 Q 311.6 -23 307.1 -21.7 Z M 344.3 -6.8 L 342.6 -6.8 L 342.6 -6.8 Q 339.7 -6.8 337.9 -7.2 L 337.9 -7.2 L 337.9 -7.2 Q 336 -7.7 334.6 -8.9 L 334.6 -8.9 L 334.6 -8.9 Q 332 -11.2 332 -18.2 L 332 -18.2 L 332 -54.1 L 337.9 -54.1 L 337.9 -18.2 L 337.9 -18.2 Q 337.9 -14.2 339.1 -13 L 339.1 -13 L 339.1 -13 Q 340.3 -11.7 344 -11.7 L 344 -11.7 L 345 -11.7 L 344.3 -6.8 Z M 366.1 -6.8 L 364.4 -6.8 L 364.4 -6.8 Q 361.5 -6.8 359.6 -7.2 L 359.6 -7.2 L 359.6 -7.2 Q 357.8 -7.7 356.4 -8.9 L 356.4 -8.9 L 356.4 -8.9 Q 353.8 -11.2 353.8 -18.2 L 353.8 -18.2 L 353.8 -54.1 L 359.6 -54.1 L 359.6 -18.2 L 359.6 -18.2 Q 359.6 -14.2 360.8 -13 L 360.8 -13 L 360.8 -13 Q 362 -11.7 365.7 -11.7 L 365.7 -11.7 L 366.8 -11.7 L 366.1 -6.8 Z M 388 -6.4 L 388 -6.4 L 388 -6.4 Q 380.7 -6.4 377.4 -9.4 L 377.4 -9.4 L 377.4 -9.4 Q 374.2 -12.4 374.2 -18.7 L 374.2 -18.7 L 374.2 -30.3 L 374.2 -30.3 Q 374.2 -35.2 377.5 -38 L 377.5 -38 L 377.5 -38 Q 380.9 -40.8 387.6 -40.8 L 387.6 -40.8 L 387.6 -40.8 Q 394.4 -40.8 397.7 -38.2 L 397.7 -38.2 L 397.7 -38.2 Q 401 -35.6 401 -30.7 L 401 -30.7 L 401 -22.9 L 380.1 -22.9 L 380.1 -18.2 L 380.1 -18.2 Q 380.1 -14.1 381.7 -12.5 L 381.7 -12.5 L 381.7 -12.5 Q 383.4 -10.9 387.7 -10.9 L 387.7 -10.9 L 387.7 -10.9 Q 392 -10.9 392.6 -11.1 L 392.6 -11.1 L 392.6 -11.1 Q 393.1 -11.2 393.7 -11.5 L 393.7 -11.5 L 393.7 -11.5 Q 394.3 -11.7 394.6 -12.1 L 394.6 -12.1 L 394.6 -12.1 Q 394.8 -12.4 395.2 -13.1 L 395.2 -13.1 L 395.2 -13.1 Q 395.6 -13.8 395.8 -15.9 L 395.8 -15.9 L 400.9 -15.9 L 400.9 -15.9 Q 400.6 -12.9 399.9 -11.1 L 399.9 -11.1 L 399.9 -11.1 Q 399.2 -9.3 397.6 -8.2 L 397.6 -8.2 L 397.6 -8.2 Q 396 -7.1 393.8 -6.7 L 393.8 -6.7 L 393.8 -6.7 Q 391.6 -6.4 388 -6.4 Z M 380.1 -30.8 L 380.1 -26.8 L 395.3 -26.8 L 395.3 -31.4 L 395.3 -31.4 Q 395.3 -34.2 393.4 -35.2 L 393.4 -35.2 L 393.4 -35.2 Q 391.5 -36.3 387.8 -36.3 L 387.8 -36.3 L 387.8 -36.3 Q 384 -36.3 382.1 -35 L 382.1 -35 L 382.1 -35 Q 380.1 -33.7 380.1 -30.8 L 380.1 -30.8 Z M 417.4 -7.1 L 411.6 -7.1 L 411.6 -40.2 L 417.4 -40.2 L 417.4 -35.5 L 417.4 -35.5 Q 418.6 -38.6 423.5 -39.9 L 423.5 -39.9 L 423.5 -39.9 Q 426.1 -40.7 428.9 -40.6 L 428.9 -40.6 L 428.8 -35.6 L 428.8 -35.6 Q 424.5 -35.6 421 -33.9 L 421 -33.9 L 421 -33.9 Q 417.4 -32.2 417.4 -30.2 L 417.4 -30.2 L 417.4 -7.1 Z M 436.8 5.6 L 436.8 5.6 L 436.8 1 L 436.8 1 Q 440.6 1 443 -0.9 L 443 -0.9 L 443 -0.9 Q 445.4 -2.8 446.6 -7.2 L 446.6 -7.2 L 432.9 -40.2 L 439.2 -40.2 L 449.3 -13.8 L 457.8 -40.2 L 463.7 -40.2 L 452.8 -8.5 L 452.8 -8.5 Q 450.7 -2.2 448.9 0.2 L 448.9 0.2 L 448.9 0.2 Q 447.2 2.7 445.6 3.6 L 445.6 3.6 L 445.6 3.6 Q 442.3 5.6 436.8 5.6 Z" fill="none" stroke="#ffa4a4" stroke-width="2.1"></path></g></g></g><style>text {
  font-size: 64px;
  font-family: Arial Black;
  dominant-baseline: central;
  text-anchor: middle;
}</style></svg>